<svg width="161" height="108" viewBox="0 0 161 108" fill="none" xmlns="http://www.w3.org/2000/svg">
<rect width="161" height="108" rx="4" fill="#4755AE" fill-opacity="0.12"/>
<path d="M71.3062 33.0397C71.3439 32.4505 71.8353 32 72.4257 32H89.5391C90.1295 32 90.6209 32.4505 90.6586 33.0397C90.7609 34.642 90.8962 37.7263 90.5824 39.6096C90.1201 42.384 88.1824 46.4328 88.1824 46.4328H73.7824C73.7824 46.4328 71.8447 42.384 71.3824 39.6096C71.0686 37.7263 71.2039 34.642 71.3062 33.0397Z" fill="#4755AE"/>
<path d="M92.747 65.1654C92.9224 66.7869 92.1702 68.3548 90.8243 69.2761L82.2869 75.1192C81.5111 75.6502 80.4889 75.6502 79.7131 75.1192L71.1758 69.2761C69.8298 68.3549 69.0776 66.7869 69.253 65.1654C69.5923 62.0291 70.2846 56.7351 71.4 53.0034C72.1809 50.3908 73.8 46.4329 73.8 46.4329L88.2 46.4329C88.2 46.4329 89.8192 50.3908 90.6 53.0034C91.7154 56.7351 92.4077 62.0291 92.747 65.1654Z" fill="#4755AE"/>
</svg>
