<svg width="18" height="18" viewBox="0 0 18 18" fill="none" xmlns="http://www.w3.org/2000/svg">
<circle cx="9" cy="9" r="9" fill="#0C111D"/>
<path d="M8.63147 4.02294C8.80679 3.75895 9.19478 3.75896 9.37009 4.02294L10.8307 6.22236C10.8896 6.31104 10.9785 6.37556 11.0811 6.40411L13.6262 7.11233C13.9317 7.19733 14.0516 7.56599 13.8545 7.81415L12.2121 9.88168C12.1459 9.96504 12.1119 10.0694 12.1165 10.1758L12.2288 12.8129C12.2422 13.1294 11.9284 13.3573 11.6312 13.2466L9.15553 12.325C9.05572 12.2879 8.94585 12.2879 8.84603 12.325L6.37035 13.2466C6.07321 13.3573 5.75932 13.1294 5.77279 12.8129L5.88509 10.1758C5.88962 10.0694 5.85567 9.96504 5.78945 9.88168L4.1471 7.81415C3.94998 7.56599 4.06987 7.19733 4.37535 7.11233L6.92043 6.40411C7.02304 6.37556 7.11193 6.31104 7.17082 6.22236L8.63147 4.02294Z" fill="#F2F4F7"/>
</svg>
