<svg width="18" height="18" viewBox="0 0 18 18" fill="none" xmlns="http://www.w3.org/2000/svg">
<g clip-path="url(#clip0_1482_13466)">
<path fill-rule="evenodd" clip-rule="evenodd" d="M14.6936 0.7072C14.3031 0.316676 13.6699 0.316675 13.2794 0.707199L6.76932 7.2173C6.58001 7.4066 6.47452 7.6639 6.47645 7.93161L6.49852 10.9956C6.50052 11.2735 6.72873 11.4964 7.00659 11.4919L9.99262 11.4436C10.2522 11.4394 10.5 11.3344 10.6836 11.1509L17.2033 4.63111C17.5938 4.24058 17.5938 3.60742 17.2033 3.21689L14.6936 0.7072ZM1.80313 8.63239C1.80313 4.85902 4.86205 1.80009 8.63542 1.80009V0.450093C4.11646 0.450093 0.453125 4.11343 0.453125 8.63239V9.00009C0.453125 13.7221 4.28109 17.5501 9.00312 17.5501H9.37083C13.8898 17.5501 17.5531 13.8868 17.5531 9.3678H16.2031C16.2031 13.1412 13.1442 16.2001 9.37083 16.2001H9.00312C5.02667 16.2001 1.80313 12.9765 1.80313 9.00009V8.63239Z" fill="white"/>
</g>
<defs>
<clipPath id="clip0_1482_13466">
<rect width="18" height="18" fill="white"/>
</clipPath>
</defs>
</svg>
