<svg width="280" height="280" viewBox="0 0 280 280" fill="none" xmlns="http://www.w3.org/2000/svg">
<g clip-path="url(#clip0_1179_13087)">
<rect width="280" height="280" rx="8" fill="#344054"/>
<rect x="206.504" y="104.071" width="31.1666" height="18.1805" transform="rotate(25.2463 206.504 104.071)" fill="url(#paint0_linear_1179_13087)"/>
<rect x="197.729" y="108.627" width="31.1666" height="18.1805" transform="rotate(-34.7537 197.729 108.627)" fill="url(#paint1_linear_1179_13087)"/>
<path d="M56.5933 277.332C53.0893 248.717 75.4178 223.487 104.247 223.487H177.067C205.896 223.487 228.225 248.717 224.721 277.332L222.68 293.998H58.634L56.5933 277.332Z" fill="url(#paint2_linear_1179_13087)"/>
<path d="M113.047 228.523H130.592V234.338L105.598 239.713C87.2152 243.667 74.578 260.59 76.0081 279.339L77.1263 293.997H66.8953L65.4316 282.714C61.7051 253.984 84.0773 228.523 113.047 228.523Z" fill="url(#paint3_linear_1179_13087)"/>
<path d="M168.279 228.523H150.734V232.615L175.814 238.009C194.16 241.954 206.789 258.82 205.412 277.535L204.2 293.997H214.431L215.895 282.714C219.621 253.984 197.249 228.523 168.279 228.523Z" fill="url(#paint4_linear_1179_13087)"/>
<path d="M140.656 243.632L140.656 293.997" stroke="#6995E4" stroke-width="4.19708"/>
<circle cx="140.662" cy="260.42" r="8.39417" fill="#4E7FD5"/>
<path d="M145.906 243.632H135.415C135.415 243.632 132.317 253.935 132.269 259.532C132.266 259.879 132.269 261.26 132.269 261.26H149.055C149.055 261.26 149.058 259.879 149.055 259.532C149.007 253.935 145.906 243.632 145.906 243.632Z" fill="#4E7FD5"/>
<path fill-rule="evenodd" clip-rule="evenodd" d="M221.557 166.319C221.607 165.129 221.632 163.931 221.632 162.728C221.632 117.322 185.372 80.514 140.642 80.514C95.9129 80.514 59.6525 117.322 59.6525 162.728C59.6525 163.978 59.6799 165.221 59.7343 166.457C48.8169 191.188 50.6291 239.884 136.961 244.937C138.287 245.014 139.524 245.047 140.676 245.036C141.827 245.047 143.065 245.014 144.39 244.937C230.883 239.875 232.541 191.007 221.557 166.319Z" fill="#FFD01A"/>
<rect width="20.146" height="33.5767" rx="10.073" transform="matrix(0.964623 -0.263634 0.25408 0.967183 120.49 69.3111)" fill="#FFD01A"/>
<rect width="20.146" height="33.5767" rx="10.073" transform="matrix(0.964623 0.263634 -0.25408 0.967183 142.842 64.4076)" fill="#FFD01A"/>
<circle cx="115.478" cy="160.672" r="11.7518" fill="#2E2216"/>
<circle cx="11.7518" cy="11.7518" r="11.7518" transform="matrix(-1 0 0 1 177.592 148.92)" fill="#2E2216"/>
<path d="M136.908 181.331L114.866 190.148C112.052 191.273 112.052 195.257 114.866 196.383L136.908 205.199C139.309 206.16 141.988 206.16 144.39 205.199L166.432 196.383C169.246 195.257 169.246 191.273 166.432 190.148L144.39 181.331C141.988 180.37 139.309 180.37 136.908 181.331Z" fill="#EB6A2B"/>
<path d="M165.834 193.269L140.651 194.948L115.469 193.269" stroke="url(#paint5_linear_1179_13087)" stroke-width="3.35767"/>
<path d="M70.1437 100.933H212.845V124.437H68.4648L70.1437 100.933Z" fill="white"/>
<circle cx="140.658" cy="260.422" r="5.0365" fill="white"/>
<path d="M155.781 230.202H201.949C201.949 230.202 186.84 238.596 175.088 241.115C160.818 244.173 146.38 244.808 146.38 244.808L155.781 230.202Z" fill="#6995E4"/>
<path d="M125.885 230.202H79.7168C79.7168 230.202 90.4962 237.669 106.578 241.115C120.848 244.173 135.286 244.808 135.286 244.808L125.885 230.202Z" fill="#6995E4"/>
<path d="M132.995 160.963C132.995 174.355 122.059 185.237 108.537 185.237C95.0149 185.237 84.079 174.355 84.079 160.963C84.079 147.572 95.0149 136.69 108.537 136.69C122.059 136.69 132.995 147.572 132.995 160.963Z" stroke="#453D35" stroke-width="4.36497"/>
<path d="M196.636 160.963C196.636 174.355 185.7 185.237 172.178 185.237C158.656 185.237 147.72 174.355 147.72 160.963C147.72 147.572 158.656 136.69 172.178 136.69C185.7 136.69 196.636 147.572 196.636 160.963Z" stroke="#453D35" stroke-width="4.36497"/>
<mask id="path-23-inside-1_1179_13087" fill="white">
<path d="M134.066 158.615C134.066 158.615 137.844 157.081 140.542 157.081C143.239 157.081 147.017 158.615 147.017 158.615V163.001C147.017 163.001 143.239 161.466 140.542 161.466C137.844 161.466 134.066 163.001 134.066 163.001V158.615Z"/>
</mask>
<path d="M134.066 158.615C134.066 158.615 137.844 157.081 140.542 157.081C143.239 157.081 147.017 158.615 147.017 158.615V163.001C147.017 163.001 143.239 161.466 140.542 161.466C137.844 161.466 134.066 163.001 134.066 163.001V158.615Z" fill="#453D35"/>
<path d="M134.066 158.615L132.395 154.502L129.626 155.627V158.615H134.066ZM147.017 158.615H151.457V155.627L148.688 154.502L147.017 158.615ZM147.017 163.001L145.345 167.114L151.457 169.597V163.001H147.017ZM134.066 163.001H129.626V169.597L135.738 167.114L134.066 163.001ZM142.577 158.615V163.001H151.457V158.615H142.577ZM138.507 163.001V158.615H129.626V163.001H138.507ZM134.066 158.615C135.738 162.729 135.737 162.729 135.737 162.729C135.737 162.729 135.736 162.73 135.736 162.73C135.735 162.73 135.735 162.73 135.734 162.73C135.734 162.731 135.733 162.731 135.732 162.731C135.731 162.731 135.731 162.732 135.732 162.731C135.734 162.731 135.739 162.728 135.747 162.725C135.764 162.719 135.794 162.707 135.835 162.691C135.918 162.659 136.047 162.61 136.214 162.549C136.55 162.427 137.024 162.264 137.566 162.102C138.756 161.745 139.865 161.521 140.542 161.521V152.64C138.52 152.64 136.392 153.183 135.019 153.594C134.279 153.816 133.64 154.036 133.183 154.202C132.954 154.285 132.767 154.356 132.633 154.408C132.566 154.434 132.512 154.455 132.472 154.471C132.452 154.479 132.435 154.486 132.422 154.491C132.416 154.493 132.41 154.496 132.406 154.497C132.404 154.498 132.402 154.499 132.4 154.5C132.399 154.5 132.398 154.501 132.397 154.501C132.397 154.501 132.396 154.501 132.396 154.501C132.396 154.502 132.395 154.502 134.066 158.615ZM140.542 161.521C141.218 161.521 142.327 161.745 143.517 162.102C144.059 162.264 144.533 162.427 144.869 162.549C145.036 162.61 145.165 162.659 145.248 162.691C145.29 162.707 145.319 162.719 145.336 162.725C145.344 162.728 145.349 162.731 145.351 162.731C145.352 162.732 145.352 162.731 145.351 162.731C145.35 162.731 145.35 162.731 145.349 162.73C145.348 162.73 145.348 162.73 145.347 162.73C145.347 162.73 145.346 162.729 145.346 162.729C145.346 162.729 145.345 162.729 147.017 158.615C148.688 154.502 148.688 154.502 148.687 154.501C148.687 154.501 148.686 154.501 148.686 154.501C148.685 154.501 148.684 154.5 148.683 154.5C148.682 154.499 148.679 154.498 148.677 154.497C148.673 154.496 148.667 154.493 148.661 154.491C148.648 154.486 148.631 154.479 148.611 154.471C148.571 154.455 148.517 154.434 148.45 154.408C148.316 154.356 148.129 154.285 147.9 154.202C147.443 154.036 146.804 153.816 146.064 153.594C144.692 153.183 142.563 152.64 140.542 152.64V161.521ZM147.017 163.001C148.688 158.887 148.688 158.887 148.687 158.887C148.687 158.887 148.686 158.886 148.686 158.886C148.685 158.886 148.684 158.886 148.683 158.885C148.682 158.885 148.679 158.884 148.677 158.883C148.673 158.881 148.667 158.879 148.661 158.876C148.648 158.871 148.631 158.864 148.611 158.856C148.571 158.841 148.517 158.819 148.45 158.793C148.316 158.741 148.129 158.671 147.9 158.587C147.443 158.422 146.804 158.201 146.064 157.98C144.692 157.569 142.563 157.026 140.542 157.026V165.906C141.218 165.906 142.327 166.13 143.517 166.487C144.059 166.649 144.533 166.812 144.869 166.934C145.036 166.995 145.165 167.044 145.248 167.076C145.29 167.092 145.319 167.104 145.336 167.11C145.344 167.114 145.349 167.116 145.351 167.116C145.352 167.117 145.352 167.117 145.351 167.116C145.35 167.116 145.35 167.116 145.349 167.116C145.348 167.115 145.348 167.115 145.347 167.115C145.347 167.115 145.346 167.115 145.346 167.115C145.346 167.114 145.345 167.114 147.017 163.001ZM140.542 157.026C138.52 157.026 136.392 157.569 135.019 157.98C134.279 158.201 133.64 158.422 133.183 158.587C132.954 158.671 132.767 158.741 132.633 158.793C132.566 158.819 132.512 158.841 132.472 158.856C132.452 158.864 132.435 158.871 132.422 158.876C132.416 158.879 132.41 158.881 132.406 158.883C132.404 158.884 132.402 158.885 132.4 158.885C132.399 158.886 132.398 158.886 132.397 158.886C132.397 158.886 132.396 158.887 132.396 158.887C132.396 158.887 132.395 158.887 134.066 163.001C135.738 167.114 135.737 167.114 135.737 167.115C135.737 167.115 135.736 167.115 135.736 167.115C135.735 167.115 135.735 167.115 135.734 167.116C135.734 167.116 135.733 167.116 135.732 167.116C135.731 167.117 135.731 167.117 135.732 167.116C135.734 167.116 135.739 167.114 135.747 167.11C135.764 167.104 135.794 167.092 135.835 167.076C135.918 167.044 136.047 166.995 136.214 166.934C136.55 166.812 137.024 166.649 137.566 166.487C138.756 166.13 139.865 165.906 140.542 165.906V157.026Z" fill="#453D35" mask="url(#path-23-inside-1_1179_13087)"/>
</g>
<defs>
<linearGradient id="paint0_linear_1179_13087" x1="236.339" y1="107.996" x2="211.466" y2="123.709" gradientUnits="userSpaceOnUse">
<stop stop-color="white"/>
<stop offset="1" stop-color="#DEDEDE"/>
</linearGradient>
<linearGradient id="paint1_linear_1179_13087" x1="227.073" y1="113.004" x2="205.228" y2="126.391" gradientUnits="userSpaceOnUse">
<stop stop-color="white"/>
<stop offset="1" stop-color="#DEDEDE"/>
</linearGradient>
<linearGradient id="paint2_linear_1179_13087" x1="140.657" y1="252.521" x2="140.657" y2="293.998" gradientUnits="userSpaceOnUse">
<stop stop-color="#A4C5FF"/>
<stop offset="1" stop-color="#79A1E8"/>
</linearGradient>
<linearGradient id="paint3_linear_1179_13087" x1="93.6579" y1="235.888" x2="94.4558" y2="293.998" gradientUnits="userSpaceOnUse">
<stop stop-color="#7CA8F4"/>
<stop offset="1" stop-color="#3469C7"/>
</linearGradient>
<linearGradient id="paint4_linear_1179_13087" x1="187.668" y1="235.888" x2="186.87" y2="293.998" gradientUnits="userSpaceOnUse">
<stop stop-color="#7CA8F4"/>
<stop offset="1" stop-color="#3469C7"/>
</linearGradient>
<linearGradient id="paint5_linear_1179_13087" x1="164.785" y1="193.269" x2="115.469" y2="193.269" gradientUnits="userSpaceOnUse">
<stop stop-color="#EB6A2B"/>
<stop offset="0.51" stop-color="#B03E06"/>
<stop offset="1" stop-color="#EB6A2B"/>
</linearGradient>
<clipPath id="clip0_1179_13087">
<rect width="280" height="280" rx="8" fill="white"/>
</clipPath>
</defs>
</svg>
