<svg width="161" height="108" viewBox="0 0 161 108" fill="none" xmlns="http://www.w3.org/2000/svg">
<rect width="161" height="108" rx="4" fill="#12B74A" fill-opacity="0.12"/>
<path fill-rule="evenodd" clip-rule="evenodd" d="M81.004 48.5266C80.0904 45.1847 78.5974 41.773 76.1665 39.9919C72.0978 37.0107 64.6557 38.0508 60.9446 38.8266C59.6459 39.0981 58.8158 40.3222 59.035 41.6303C59.6566 45.339 61.324 52.5906 65.1662 55.616C68.2375 58.0344 73.4049 58.3085 77.2852 58.0962V66.8594C77.2852 68.9181 78.9541 70.5871 81.0129 70.5871C83.0716 70.5871 84.7405 68.9181 84.7405 66.8594V58.0972C88.6189 58.3077 93.7751 58.0307 96.8418 55.616C100.684 52.5906 102.351 45.339 102.973 41.6303C103.192 40.3222 102.362 39.0981 101.063 38.8266C97.3523 38.0508 89.9101 37.0107 85.8415 39.9919C83.4106 41.773 81.9175 45.1847 81.004 48.5266Z" fill="#12B74A"/>
</svg>
