<svg width="161" height="108" viewBox="0 0 161 108" fill="none" xmlns="http://www.w3.org/2000/svg">
<rect width="161" height="108" rx="4" fill="#F2F4F7"/>
<path d="M79.0881 34.08C79.9704 32.6609 82.0358 32.6609 82.9181 34.08L88.074 42.3726C88.3845 42.8719 88.8777 43.2302 89.4485 43.3711L98.9284 45.7122C100.551 46.1128 101.189 48.0771 100.112 49.3548L93.8185 56.8208C93.4396 57.2704 93.2512 57.8501 93.2935 58.4365L93.9966 68.1759C94.1169 69.8426 92.4459 71.0566 90.898 70.4271L81.8526 66.7489C81.3079 66.5274 80.6983 66.5274 80.1537 66.7489L71.1083 70.4271C69.5603 71.0566 67.8894 69.8426 68.0097 68.1759L68.7127 58.4365C68.755 57.8501 68.5667 57.2704 68.1877 56.8208L61.8943 49.3548C60.8173 48.0771 61.4556 46.1128 63.0779 45.7122L72.5578 43.3711C73.1286 43.2302 73.6218 42.8719 73.9322 42.3726L79.0881 34.08Z" fill="#D0D5DD"/>
</svg>
