<svg width="40" height="40" viewBox="0 0 40 40" fill="none" xmlns="http://www.w3.org/2000/svg">
<g clip-path="url(#clip0_1203_19224)">
<rect width="40" height="40" rx="20" fill="#D0D5DD"/>
<path d="M15.1512 10.5199C15.17 10.2252 15.4157 10 15.7109 10H24.2676C24.5628 10 24.8085 10.2252 24.8273 10.5199C24.8785 11.321 24.9461 12.8632 24.7892 13.8048C24.5581 15.192 23.5892 17.2164 23.5892 17.2164H16.3892C16.3892 17.2164 15.4204 15.192 15.1892 13.8048C15.0324 12.8632 15.1 11.321 15.1512 10.5199Z" fill="#344054"/>
<path d="M25.8735 26.5822C25.9612 27.393 25.5851 28.1769 24.9121 28.6375L20.6435 31.5591C20.2556 31.8246 19.7444 31.8246 19.3566 31.5591L15.0879 28.6375C14.4149 28.1769 14.0388 27.393 14.1265 26.5822C14.2962 25.0141 14.6423 22.3671 15.2 20.5012C15.5904 19.1949 16.4 17.216 16.4 17.216L23.6 17.216C23.6 17.216 24.4096 19.1949 24.8 20.5012C25.3577 22.3671 25.7038 25.0141 25.8735 26.5822Z" fill="#344054"/>
</g>
<defs>
<clipPath id="clip0_1203_19224">
<rect width="40" height="40" fill="white"/>
</clipPath>
</defs>
</svg>
