<svg width="280" height="280" viewBox="0 0 280 280" fill="none" xmlns="http://www.w3.org/2000/svg">
<g clip-path="url(#clip0_1179_13117)">
<rect width="280" height="280" rx="8" fill="#344054"/>
<path d="M55.598 277.484C52.0915 248.848 74.4359 223.601 103.286 223.601H176.157C205.007 223.601 227.352 248.848 223.845 277.484L221.803 294.162H57.6401L55.598 277.484Z" fill="url(#paint0_linear_1179_13117)"/>
<ellipse cx="139.451" cy="230.783" rx="38.8576" ry="32.3814" fill="url(#paint1_linear_1179_13117)"/>
<path d="M129.789 245.402C129.846 244.77 130.378 244.295 131.013 244.295H147.292C147.927 244.295 148.46 244.77 148.516 245.402C148.67 247.106 148.896 250.384 148.594 252.385C148.148 255.335 146.345 259.639 146.345 259.639H131.96C131.96 259.639 130.157 255.335 129.712 252.385C129.409 250.384 129.635 247.106 129.789 245.402Z" fill="url(#paint2_linear_1179_13117)"/>
<path d="M152.359 284.731C152.505 286.37 151.801 287.956 150.513 288.978L140.698 296.768C139.788 297.49 138.5 297.49 137.59 296.768L127.775 288.978C126.487 287.956 125.783 286.37 125.929 284.731C126.278 280.815 127.071 273.335 128.403 268.165C129.277 264.775 131.939 259.64 131.939 259.64L146.338 259.64C146.338 259.64 149.011 264.775 149.885 268.165C151.218 273.335 152.01 280.815 152.359 284.731Z" fill="url(#paint3_linear_1179_13117)"/>
<path d="M109.041 260.72L87.6484 233.683L113.554 235.841L139.459 244.476L114.894 261.584C113.021 262.888 110.457 262.51 109.041 260.72Z" fill="white"/>
<path d="M169.858 260.72L191.25 233.683L165.345 235.841L139.44 244.476L164.005 261.584C165.877 262.888 168.442 262.51 169.858 260.72Z" fill="white"/>
<path fill-rule="evenodd" clip-rule="evenodd" d="M220.635 166.421C220.687 165.22 220.712 164.012 220.712 162.798C220.712 117.36 184.426 80.5254 139.665 80.5254C94.9035 80.5254 58.6172 117.36 58.6172 162.798C58.6172 164.038 58.6442 165.271 58.6977 166.498C47.7562 191.236 49.5325 240.009 135.965 245.067C137.292 245.144 138.531 245.177 139.684 245.166C140.836 245.177 142.075 245.144 143.402 245.067C229.925 240.003 231.615 191.135 220.635 166.421Z" fill="#FFD01A"/>
<rect width="20.1603" height="33.6006" rx="10.0802" transform="matrix(0.964623 -0.263634 0.25408 0.967183 119 69.3154)" fill="#FFD01A"/>
<rect width="20.1603" height="33.6006" rx="10.0802" transform="matrix(0.964623 0.263634 -0.25408 0.967183 141.375 64.4092)" fill="#FFD01A"/>
<circle cx="114.518" cy="157.38" r="11.7602" fill="#2E2216"/>
<circle cx="11.7602" cy="11.7602" r="11.7602" transform="matrix(-1 0 0 1 176.688 145.62)" fill="#2E2216"/>
<path d="M133.972 174.247L116.138 182.694C112.808 184.272 112.808 189.012 116.139 190.589L133.972 199.037C137.613 200.762 141.837 200.762 145.479 199.037L163.312 190.589C166.643 189.012 166.643 184.272 163.312 182.694L145.479 174.247C141.837 172.522 137.613 172.522 133.972 174.247Z" fill="#EB6A2B"/>
<path d="M164.922 186.642L139.721 190.002L114.521 186.642" stroke="url(#paint4_linear_1179_13117)" stroke-width="3.36006"/>
<path d="M125.304 148.368L107.756 141.775L104.448 146.811L124.625 151.598L125.304 148.368Z" fill="#2E2216"/>
<path d="M153.961 148.368L171.509 141.775L174.818 146.811L154.641 151.598L153.961 148.368Z" fill="#2E2216"/>
<path d="M144.483 158.626C143.134 158.198 141.339 157.74 139.72 157.74C138.101 157.74 136.306 158.198 134.958 158.626V157.787C135.243 157.681 135.569 157.566 135.919 157.451C137.208 157.029 138.644 156.677 139.72 156.677C140.796 156.677 142.232 157.029 143.521 157.451C143.872 157.566 144.197 157.681 144.483 157.787V158.626Z" fill="#453D35" stroke="#453D35" stroke-width="3.91501"/>
<path d="M144.42 142.894C144.199 141.021 145.542 139.328 147.416 139.118L195.146 133.764C195.539 133.72 195.871 134.054 195.824 134.446L191.317 172.107C190.987 174.865 188.653 176.938 185.875 176.943L152.74 176.998C150.295 177.002 148.231 175.171 147.945 172.742L144.42 142.894Z" stroke="#453D35" stroke-width="4.36807"/>
<path d="M134.103 142.894C134.325 141.021 132.982 139.328 131.108 139.118L83.3777 133.764C82.9849 133.72 82.6529 134.054 82.6998 134.446L87.2062 172.107C87.5361 174.865 89.8701 176.938 92.6489 176.943L125.783 176.998C128.228 177.002 130.292 175.171 130.579 172.742L134.103 142.894Z" stroke="#453D35" stroke-width="4.36807"/>
</g>
<defs>
<linearGradient id="paint0_linear_1179_13117" x1="139.722" y1="252.655" x2="139.722" y2="294.162" gradientUnits="userSpaceOnUse">
<stop stop-color="#C5C5C5"/>
<stop offset="1" stop-color="#6B6B6B"/>
</linearGradient>
<linearGradient id="paint1_linear_1179_13117" x1="139.451" y1="230.783" x2="139.451" y2="263.164" gradientUnits="userSpaceOnUse">
<stop stop-color="#999999"/>
<stop offset="1" stop-color="white"/>
</linearGradient>
<linearGradient id="paint2_linear_1179_13117" x1="139.151" y1="244.295" x2="139.151" y2="259.639" gradientUnits="userSpaceOnUse">
<stop stop-color="#8C8C8C"/>
<stop offset="1" stop-color="#343230"/>
</linearGradient>
<linearGradient id="paint3_linear_1179_13117" x1="139.144" y1="259.64" x2="139.144" y2="284.878" gradientUnits="userSpaceOnUse">
<stop stop-color="#808080"/>
<stop offset="1" stop-color="#343230"/>
</linearGradient>
<linearGradient id="paint4_linear_1179_13117" x1="163.872" y1="186.642" x2="114.521" y2="186.642" gradientUnits="userSpaceOnUse">
<stop stop-color="#EB6A2B"/>
<stop offset="0.51" stop-color="#B03E06"/>
<stop offset="1" stop-color="#EB6A2B"/>
</linearGradient>
<clipPath id="clip0_1179_13117">
<rect width="280" height="280" rx="8" fill="white"/>
</clipPath>
</defs>
</svg>
