<svg width="40" height="40" viewBox="0 0 40 40" fill="none" xmlns="http://www.w3.org/2000/svg">
<g clip-path="url(#clip0_1203_19223)">
<rect width="40" height="40" rx="20" fill="#D0D5DD"/>
<path fill-rule="evenodd" clip-rule="evenodd" d="M19.9997 18.2549C19.5427 16.5866 18.7966 14.885 17.5832 13.9959C15.5489 12.5054 11.8278 13.0254 9.97228 13.4133C9.32297 13.549 8.9079 14.1611 9.01752 14.8151C9.32832 16.6695 10.162 20.2953 12.0831 21.808C13.6179 23.0165 16.1994 23.1541 18.1392 23.0483V27.4302C18.1392 28.4596 18.9737 29.294 20.003 29.294C21.0324 29.294 21.8669 28.4596 21.8669 27.4302V23.0486C23.8059 23.1538 26.3833 23.0151 27.9163 21.808C29.8373 20.2953 30.671 16.6695 30.9818 14.8151C31.0915 14.1611 30.6764 13.549 30.0271 13.4133C28.1715 13.0254 24.4504 12.5054 22.4161 13.9959C21.2027 14.885 20.4567 16.5866 19.9997 18.2549Z" fill="#344054"/>
</g>
<defs>
<clipPath id="clip0_1203_19223">
<rect width="40" height="40" fill="white"/>
</clipPath>
</defs>
</svg>
