<svg width="33" height="28" viewBox="0 0 33 28" fill="none" xmlns="http://www.w3.org/2000/svg">
<g clip-path="url(#clip0_1674_3518)">
<rect x="0.5" y="3.24707" width="18.701" height="25.1944" rx="0.957265" transform="rotate(-10 0.5 3.24707)" fill="#404D65"/>
<path fill-rule="evenodd" clip-rule="evenodd" d="M12.1737 8.57554C14.8263 8.67775 17.1434 10.6215 17.6249 13.3519C17.6392 13.4331 17.6517 13.5142 17.6625 13.5952L17.6656 13.5931C18.7382 15.1647 19.2256 18.5738 13.2265 19.9933C13.1464 20.0122 13.0705 20.028 12.9989 20.0406C12.9087 20.0585 12.8098 20.0738 12.7021 20.0864C6.6021 20.8017 5.87665 17.4592 6.33652 15.6111C6.3174 15.5254 6.30012 15.4389 6.28471 15.3515C5.80393 12.6248 7.31172 10.0092 9.76337 9.00291L9.71477 8.89842C9.5615 8.5689 9.70414 8.177 10.0334 8.02309C10.3446 7.87757 10.7112 7.99689 10.8798 8.28884C10.937 7.9552 11.2416 7.7161 11.5849 7.74648C11.9469 7.77851 12.215 8.09799 12.1837 8.46005L12.1737 8.57554Z" fill="#FFD01A"/>
<path d="M11.2788 15.0916L10.4371 15.7939C10.2135 15.9804 10.2768 16.3391 10.5506 16.4379L11.5818 16.81C12.1067 16.9994 12.6928 16.8961 13.1213 16.5385L13.963 15.8362C14.1865 15.6497 14.1232 15.291 13.8494 15.1922L12.8183 14.8201C12.2933 14.6307 11.7073 14.734 11.2788 15.0916Z" fill="#EB6A2B"/>
<path d="M10.4219 16.1299L12.2465 16.0596L13.9851 15.5016" stroke="url(#paint0_linear_1674_3518)" stroke-width="0.235619"/>
<ellipse cx="10.0469" cy="14.014" rx="0.822322" ry="0.825546" transform="rotate(-10 10.0469 14.014)" fill="url(#paint1_linear_1674_3518)"/>
<ellipse cx="13.6094" cy="13.3872" rx="0.822322" ry="0.825546" transform="rotate(-10 13.6094 13.3872)" fill="#2E2216"/>
<path fill-rule="evenodd" clip-rule="evenodd" d="M26.3264 16.7726C27.1535 14.8172 26.751 12.341 25.1123 10.4953C23.3198 8.47643 20.6031 7.83695 18.4594 8.74672L18.2856 8.56945L17.3278 9.4198C17.2594 9.47427 17.1921 9.53083 17.126 9.5895C17.0599 9.64817 16.9958 9.70829 16.9336 9.76978L16.9076 9.7929L16.909 9.79433C14.9091 11.8004 14.9613 15.2406 17.08 17.6269C19.2726 20.0965 22.8482 20.502 25.0663 18.5327C25.1504 18.458 25.2314 18.381 25.3092 18.3018L26.6545 17.1073L26.3264 16.7726Z" fill="#1D2635"/>
<ellipse cx="22.4707" cy="12.8363" rx="5.37068" ry="5.97973" transform="rotate(-41.6004 22.4707 12.8363)" fill="#5F718D"/>
<ellipse cx="22.4746" cy="12.8358" rx="4.87423" ry="5.42698" transform="rotate(-41.6004 22.4746 12.8358)" fill="#7C8CA7"/>
<ellipse cx="23.1871" cy="12.1186" rx="3.14674" ry="3.50359" transform="rotate(-41.6004 23.1871 12.1186)" fill="#485A74"/>
<path fill-rule="evenodd" clip-rule="evenodd" d="M31.8867 7.51414C32.9402 6.46013 32.6867 4.76038 31.6329 3.70664L22.1565 13.1831C23.1158 14.188 24.7794 14.283 25.7101 13.3523C26.2279 12.8346 26.4621 12.1598 26.67 11.5609C26.8358 11.0832 26.9848 10.6537 27.2477 10.3909C27.9692 9.66932 28.7104 9.3501 29.4674 9.02403C30.2579 8.68352 31.0657 8.33556 31.8867 7.51414ZM27.8242 3.45261C28.8783 2.39913 30.578 2.6527 31.6317 3.70645L22.1553 13.1829C21.1503 12.2235 21.0554 10.5599 21.9861 9.62922C22.5038 9.1115 23.1786 8.87727 23.7775 8.6694C24.2552 8.50358 24.6846 8.35452 24.9475 8.09171C25.6691 7.37012 25.9883 6.62899 26.3144 5.87198C26.6549 5.08146 27.0028 4.27362 27.8242 3.45261Z" fill="#7C8CA7"/>
</g>
<defs>
<linearGradient id="paint0_linear_1674_3518" x1="10.4961" y1="16.1168" x2="13.9851" y2="15.5016" gradientUnits="userSpaceOnUse">
<stop stop-color="#EB6A2B"/>
<stop offset="0.51" stop-color="#BD4910"/>
<stop offset="1" stop-color="#EB6A2B"/>
</linearGradient>
<linearGradient id="paint1_linear_1674_3518" x1="10.0469" y1="13.1884" x2="10.0469" y2="14.8395" gradientUnits="userSpaceOnUse">
<stop stop-color="#2E2216"/>
<stop offset="1" stop-color="#0B0804"/>
</linearGradient>
<clipPath id="clip0_1674_3518">
<rect width="33" height="28" fill="white"/>
</clipPath>
</defs>
</svg>
