<svg width="375" height="813" viewBox="0 0 375 813" fill="none" xmlns="http://www.w3.org/2000/svg">
<g clip-path="url(#clip0_1_864)">
<rect width="375" height="811.538" transform="translate(0 0.5)" fill="white"/>
<path d="M-13.96 760.063C-21.6684 691.724 31.8004 631.885 100.573 631.885H277.523C346.296 631.885 399.765 691.724 392.056 760.064L385.803 815.501H-7.70692L-13.96 760.063Z" fill="url(#paint0_linear_1_864)"/>
<ellipse cx="189.101" cy="636.559" rx="93.2206" ry="77.6838" fill="url(#paint1_linear_1_864)"/>
<path d="M163.836 670.383C163.93 668.827 165.226 667.634 166.785 667.634H209.241C210.8 667.634 212.096 668.827 212.191 670.383C212.446 674.61 212.783 682.735 212 687.697C210.845 695.012 206.003 705.687 206.003 705.687H170.023C170.023 705.687 165.182 695.012 164.027 687.697C163.243 682.735 163.58 674.61 163.836 670.383Z" fill="url(#paint2_linear_1_864)"/>
<path d="M217.377 755.319C217.799 759.464 215.926 763.474 212.548 765.914L191.512 781.106C189.416 782.62 186.586 782.62 184.49 781.106L163.454 765.914C160.076 763.474 158.203 759.464 158.625 755.319C159.464 747.083 161.2 732.946 164.015 723.009C165.966 716.121 170.011 705.685 170.011 705.685L205.991 705.685C205.991 705.685 210.037 716.121 211.988 723.009C214.802 732.946 216.539 747.083 217.377 755.319Z" fill="url(#paint3_linear_1_864)"/>
<path d="M116.12 706.6L64.7993 641.737L126.946 646.915L189.093 667.631L130.162 708.673C125.669 711.802 119.517 710.894 116.12 706.6Z" fill="white"/>
<path d="M262.077 706.6L313.397 641.737L251.25 646.915L189.103 667.631L248.034 708.673C252.527 711.802 258.679 710.894 262.077 706.6Z" fill="white"/>
<path fill-rule="evenodd" clip-rule="evenodd" d="M145.753 286.163C142.612 274.443 149.568 262.395 161.288 259.254C172.48 256.256 183.969 262.462 187.718 273.231C191.468 262.463 202.957 256.258 214.147 259.256C225.868 262.397 232.824 274.445 229.683 286.165L228.817 289.397C315.698 307.915 380.862 385.1 380.862 477.505C380.862 480.442 380.796 483.364 380.665 486.27L380.769 486.224C406.544 542.638 403.403 653.598 208.209 668.844C204.318 669.24 200.392 669.519 196.436 669.679C191.53 670.229 185.706 670.33 178.9 669.937C-26.6122 658.09 -30.353 543.603 -4.19314 485.929C-4.00028 486.015 -3.8074 486.102 -3.6145 486.188C-3.74241 483.31 -3.80704 480.415 -3.80704 477.505C-3.80704 385.643 60.5931 308.823 146.708 289.729L145.753 286.163Z" fill="#FFD01A"/>
<path d="M160.448 498.754L130.831 515.678C121.975 520.739 121.975 533.509 130.831 538.57L160.448 555.494C177.335 565.143 198.065 565.143 214.952 555.494L244.569 538.57C253.425 533.509 253.425 520.739 244.569 515.678L214.952 498.754C198.065 489.105 177.335 489.105 160.448 498.754Z" fill="#EB6A2B"/>
<path d="M127.292 527.123L187.713 535.362L248.133 527.123" stroke="url(#paint4_linear_1_864)" stroke-width="8.23918"/>
<circle cx="127.276" cy="455.722" r="27.4639" fill="url(#paint5_linear_1_864)"/>
<circle cx="248.124" cy="455.722" r="27.4639" fill="#2E2216"/>
<path fill-rule="evenodd" clip-rule="evenodd" d="M168.383 159.756V152.679H182.544V148.798H192.137V152.679H206.299V159.756H197.299L206.299 175.281H195.792L187.341 159.939L178.89 175.281H168.383L177.382 159.756H168.383ZM168.383 188.797V181.719H182.544V171.948H192.137V181.719H206.299V188.797H168.383ZM230.911 169.986V150.169H238.859V155.602H240.824V150.169H248.772V169.986H240.824V163.365H238.859V169.986H230.911ZM210.4 169.986L215.196 150.169H225.246L230.043 169.986H222.003L220.221 160.169L218.44 169.986H210.4ZM249.001 180.077C249.001 185.099 246.169 188.798 240.687 188.798H218.942C213.46 188.798 210.628 185.099 210.628 180.077C210.628 175.054 213.46 171.355 218.942 171.355H240.687C246.169 171.355 249.001 175.054 249.001 180.077ZM229.814 172.223C229.813 172.284 229.81 172.345 229.807 172.406H229.822C229.819 172.345 229.816 172.284 229.814 172.223ZM214.922 180.077L214.995 180.076L214.995 180.078L214.922 180.077ZM229.813 188.102C229.814 188.166 229.814 188.231 229.814 188.296C229.814 188.231 229.815 188.166 229.816 188.102H229.813ZM132.538 150.169L125 188.798H134.593L138.705 161.767L142.816 188.798H152.409L144.872 150.169H132.538ZM153.323 150.169V188.798H162.459V171.584H166.57V163.821H162.459V150.169H153.323ZM220.706 180.061V182.394L237.836 180.446V178.114L220.706 180.061Z" fill="#0C111D"/>
<rect x="128" y="799.5" width="120" height="5" rx="2.5" fill="black"/>
</g>
<defs>
<linearGradient id="paint0_linear_1_864" x1="189.048" y1="707.492" x2="189.048" y2="815.501" gradientUnits="userSpaceOnUse">
<stop stop-color="#A4C5FF"/>
<stop offset="1" stop-color="#8BB1F3"/>
</linearGradient>
<linearGradient id="paint1_linear_1_864" x1="189.101" y1="636.559" x2="189.101" y2="714.243" gradientUnits="userSpaceOnUse">
<stop stop-color="#999999"/>
<stop offset="1" stop-color="white"/>
</linearGradient>
<linearGradient id="paint2_linear_1_864" x1="188.013" y1="667.634" x2="188.013" y2="705.687" gradientUnits="userSpaceOnUse">
<stop stop-color="#4775C3"/>
<stop offset="1" stop-color="#4468A6"/>
</linearGradient>
<linearGradient id="paint3_linear_1_864" x1="188.001" y1="714.242" x2="188.001" y2="783.642" gradientUnits="userSpaceOnUse">
<stop stop-color="#4775C3"/>
<stop offset="1" stop-color="#4468A6"/>
</linearGradient>
<linearGradient id="paint4_linear_1_864" x1="129.81" y1="527.123" x2="248.133" y2="527.123" gradientUnits="userSpaceOnUse">
<stop stop-color="#EB6A2B"/>
<stop offset="0.51" stop-color="#BD4910"/>
<stop offset="1" stop-color="#EB6A2B"/>
</linearGradient>
<linearGradient id="paint5_linear_1_864" x1="127.276" y1="428.258" x2="127.276" y2="483.186" gradientUnits="userSpaceOnUse">
<stop stop-color="#2E2216"/>
<stop offset="1" stop-color="#0B0804"/>
</linearGradient>
<clipPath id="clip0_1_864">
<rect width="375" height="811.538" fill="white" transform="translate(0 0.5)"/>
</clipPath>
</defs>
</svg>
