<svg width="40" height="40" viewBox="0 0 40 40" fill="none" xmlns="http://www.w3.org/2000/svg">
<g clip-path="url(#clip0_1203_19225)">
<rect width="40" height="40" rx="20" fill="#D0D5DD"/>
<path d="M19.0658 10.5025C19.4962 9.81022 20.5038 9.81022 20.9342 10.5025L23.4492 14.5476C23.6007 14.7912 23.8412 14.9659 24.1197 15.0347L28.744 16.1767C29.5354 16.3721 29.8467 17.3303 29.3214 17.9535L26.2514 21.5955C26.0666 21.8148 25.9747 22.0976 25.9953 22.3837L26.3383 27.1346C26.3969 27.9476 25.5819 28.5398 24.8268 28.2328L20.4144 26.4385C20.1487 26.3305 19.8513 26.3305 19.5856 26.4385L15.1732 28.2328C14.4181 28.5398 13.6031 27.9476 13.6617 27.1346L14.0047 22.3837C14.0253 22.0976 13.9334 21.8148 13.7486 21.5955L10.6786 17.9535C10.1533 17.3303 10.4646 16.3721 11.256 16.1767L15.8803 15.0347C16.1588 14.9659 16.3993 14.7912 16.5508 14.5476L19.0658 10.5025Z" fill="#344054"/>
</g>
<defs>
<clipPath id="clip0_1203_19225">
<rect width="40" height="40" fill="white"/>
</clipPath>
</defs>
</svg>
