<svg width="280" height="280" viewBox="0 0 280 280" fill="none" xmlns="http://www.w3.org/2000/svg">
<g clip-path="url(#clip0_1179_13053)">
<rect width="280" height="280" rx="8" fill="#344054"/>
<path d="M55.622 278.263C52.1027 249.523 74.5283 224.184 103.483 224.184H176.619C205.574 224.184 228 249.523 224.481 278.263L222.431 295.001H57.6716L55.622 278.263Z" fill="url(#paint0_linear_1179_13053)"/>
<path d="M173.793 231.771C173.793 247.136 145.972 261.279 140.07 261.279C134.169 261.279 106.348 247.136 106.348 231.771C106.348 216.406 121.446 203.95 140.07 203.95C158.695 203.95 173.793 216.406 173.793 231.771Z" fill="url(#paint1_linear_1179_13053)"/>
<path d="M107.06 258.168L87.7812 234.299L111.387 236.226L134.993 243.934L112.873 259.024C111.008 260.297 108.479 259.924 107.06 258.168Z" fill="white"/>
<path d="M173.849 258.012L192.318 234.299L169.556 236.226L146.793 243.934L167.928 258.887C169.819 260.224 172.426 259.839 173.849 258.012Z" fill="white"/>
<path fill-rule="evenodd" clip-rule="evenodd" d="M221.243 166.788C221.295 165.585 221.321 164.375 221.321 163.158C221.321 117.555 184.902 80.587 139.978 80.587C95.0543 80.587 58.6361 117.555 58.6361 163.158C58.6361 164.402 58.6632 165.64 58.7169 166.871C47.7332 191.697 49.5107 240.653 136.263 245.73C137.596 245.808 138.841 245.84 139.998 245.83C141.156 245.84 142.401 245.808 143.734 245.73C230.583 240.647 232.268 191.589 221.243 166.788Z" fill="#FFD01A"/>
<rect width="20.2336" height="33.7227" rx="10.1168" transform="matrix(0.964623 -0.263634 0.25408 0.967183 119 69.3343)" fill="#FFD01A"/>
<rect width="20.2336" height="33.7227" rx="10.1168" transform="matrix(0.964623 0.263634 -0.25408 0.967183 141.453 64.4098)" fill="#FFD01A"/>
<path d="M133.496 166.866L123.087 175.674C120.483 177.877 120.483 181.891 123.087 184.094L133.496 192.902C137.268 196.094 142.794 196.094 146.566 192.902L156.975 184.094C159.579 181.891 159.579 177.877 156.975 175.674L146.566 166.866C142.794 163.675 137.268 163.675 133.496 166.866Z" fill="#EB6A2B"/>
<path d="M123.178 179.883L137.394 182.726C139.14 183.076 140.938 183.076 142.685 182.726L156.9 179.883" stroke="url(#paint2_linear_1179_13053)" stroke-width="3.37227"/>
<circle cx="114.754" cy="150.978" r="11.8029" fill="#0B0804"/>
<circle cx="165.301" cy="150.978" r="11.8029" fill="#2E2216"/>
<g opacity="0.25" filter="url(#filter0_f_1179_13053)">
<rect x="65.8398" y="164.27" width="40.4673" height="33.7227" rx="16.8614" fill="#FF8383"/>
</g>
<circle cx="86.0448" cy="175.227" r="2.5292" fill="#F4AD1C"/>
<circle cx="78.4628" cy="185.344" r="2.5292" fill="#F4AD1C"/>
<circle cx="93.6483" cy="185.344" r="2.5292" fill="#F4AD1C"/>
<g opacity="0.25" filter="url(#filter1_f_1179_13053)">
<rect x="173.787" y="164.27" width="40.4673" height="33.7227" rx="16.8614" fill="#FF8383"/>
</g>
<circle cx="194.012" cy="175.227" r="2.5292" fill="#F4AD1C"/>
<circle cx="186.404" cy="185.344" r="2.5292" fill="#F4AD1C"/>
<circle cx="201.59" cy="185.344" r="2.5292" fill="#F4AD1C"/>
</g>
<defs>
<filter id="filter0_f_1179_13053" x="55.4345" y="153.865" width="61.2774" height="54.5334" filterUnits="userSpaceOnUse" color-interpolation-filters="sRGB">
<feFlood flood-opacity="0" result="BackgroundImageFix"/>
<feBlend mode="normal" in="SourceGraphic" in2="BackgroundImageFix" result="shape"/>
<feGaussianBlur stdDeviation="5.20266" result="effect1_foregroundBlur_1179_13053"/>
</filter>
<filter id="filter1_f_1179_13053" x="163.382" y="153.865" width="61.2774" height="54.5334" filterUnits="userSpaceOnUse" color-interpolation-filters="sRGB">
<feFlood flood-opacity="0" result="BackgroundImageFix"/>
<feBlend mode="normal" in="SourceGraphic" in2="BackgroundImageFix" result="shape"/>
<feGaussianBlur stdDeviation="5.20266" result="effect1_foregroundBlur_1179_13053"/>
</filter>
<linearGradient id="paint0_linear_1179_13053" x1="140.051" y1="224.184" x2="140.051" y2="295.001" gradientUnits="userSpaceOnUse">
<stop stop-color="#709CE9"/>
<stop offset="1" stop-color="#3F5883"/>
</linearGradient>
<linearGradient id="paint1_linear_1179_13053" x1="140.07" y1="211.167" x2="140.07" y2="259.592" gradientUnits="userSpaceOnUse">
<stop stop-color="#999999"/>
<stop offset="1" stop-color="white"/>
</linearGradient>
<linearGradient id="paint2_linear_1179_13053" x1="123.88" y1="179.883" x2="156.9" y2="179.883" gradientUnits="userSpaceOnUse">
<stop stop-color="#EB6A2B"/>
<stop offset="0.51" stop-color="#B03E06"/>
<stop offset="1" stop-color="#EB6A2B"/>
</linearGradient>
<clipPath id="clip0_1179_13053">
<rect width="280" height="280" rx="8" fill="white"/>
</clipPath>
</defs>
</svg>
