<svg width="280" height="280" viewBox="0 0 280 280" fill="none" xmlns="http://www.w3.org/2000/svg">
<g clip-path="url(#clip0_1179_13027)">
<rect width="280" height="280" rx="8" fill="#344054"/>
<path d="M56.4122 277.435C52.9297 248.995 75.1212 223.92 103.774 223.92H176.146C204.799 223.92 226.99 248.995 223.508 277.435L221.48 293.998H58.4404L56.4122 277.435Z" fill="url(#paint0_linear_1179_13027)"/>
<ellipse cx="139.682" cy="231.051" rx="38.5917" ry="32.1597" fill="url(#paint1_linear_1179_13027)"/>
<path d="M130.19 245.048C130.246 244.417 130.776 243.944 131.408 243.944H148.505C149.137 243.944 149.667 244.417 149.723 245.048C149.883 246.87 150.133 250.525 149.812 252.741C149.347 255.948 147.465 260.629 147.465 260.629H132.448C132.448 260.629 130.566 255.948 130.101 252.741C129.78 250.525 130.03 246.87 130.19 245.048Z" fill="url(#paint2_linear_1179_13027)"/>
<path d="M153.014 280.599C153.218 282.4 152.368 284.144 150.855 285.142L141.327 291.428C140.498 291.975 139.423 291.975 138.593 291.428L129.065 285.142C127.552 284.144 126.703 282.4 126.906 280.599C127.288 277.224 128.055 271.629 129.282 267.672C130.15 264.871 132.452 260.628 132.452 260.628L147.469 260.628C147.469 260.628 149.77 264.871 150.639 267.672C151.866 271.629 152.633 277.224 153.014 280.599Z" fill="url(#paint3_linear_1179_13027)"/>
<path d="M109.484 260.783L88.2383 233.931L113.966 236.075L139.694 244.651L115.297 261.641C113.437 262.937 110.89 262.561 109.484 260.783Z" fill="white"/>
<path d="M169.895 260.783L191.141 233.931L165.413 236.075L139.685 244.651L164.082 261.641C165.942 262.937 168.488 262.561 169.895 260.783Z" fill="white"/>
<path fill-rule="evenodd" clip-rule="evenodd" d="M220.361 167.152C220.413 165.954 220.439 164.748 220.439 163.537C220.439 118.41 184.401 81.8278 139.946 81.8278C95.4906 81.8278 59.4526 118.41 59.4526 163.537C59.4526 164.768 59.4795 165.993 59.5326 167.211C48.6661 191.78 50.4307 240.218 136.271 245.242C137.588 245.319 138.816 245.351 139.96 245.341C141.103 245.351 142.332 245.319 143.648 245.242C229.557 240.214 231.256 191.703 220.361 167.152Z" fill="#FFD01A"/>
<circle cx="114.936" cy="156.488" r="11.6797" fill="#2E2216"/>
<circle cx="11.6797" cy="11.6797" r="11.6797" transform="matrix(-1 0 0 1 176.68 144.216)" fill="#2E2216"/>
<path d="M133.375 173.861L114.717 184.388C111.879 185.99 111.891 190.083 114.74 191.667L133.447 202.071C137.481 204.315 142.388 204.315 146.422 202.071L165.129 191.667C167.978 190.083 167.99 185.99 165.152 184.388L146.494 173.861C142.423 171.564 137.446 171.564 133.375 173.861Z" fill="#EB6A2B"/>
<path d="M137.244 185.329L116.578 187.839L137.109 190.476C138.781 190.691 140.473 190.693 142.145 190.484L163.297 187.839L142.01 185.321C140.427 185.134 138.827 185.136 137.244 185.329Z" fill="url(#paint4_linear_1179_13027)" stroke="url(#paint5_linear_1179_13027)" stroke-width="3.33706" stroke-linejoin="round"/>
<path fill-rule="evenodd" clip-rule="evenodd" d="M128.91 95.9551C120.46 96.1646 110.32 95.2781 104.042 90.8027C95.316 84.5822 91.5587 69.6523 90.1477 61.8675C89.6353 59.0405 91.4315 56.427 94.2493 55.8703C102.684 54.2039 120.081 51.8244 129.501 58.0679C135.306 61.9154 138.746 69.477 140.777 76.721C142.809 69.4755 146.25 61.9114 152.06 58.0636C161.487 51.8201 178.897 54.203 187.337 55.8704C190.155 56.4271 191.951 59.0406 191.438 61.8675C190.027 69.6524 186.269 84.5821 177.538 90.8017C170.845 95.5698 159.765 96.2626 151.017 95.8967C149.246 99.7936 145.32 102.503 140.761 102.503H139.139C134.603 102.503 130.693 99.8206 128.91 95.9551Z" fill="#13B149"/>
<g opacity="0.25" filter="url(#filter0_f_1179_13027)">
<rect x="66.5391" y="172.062" width="40.0447" height="33.3706" rx="16.6853" fill="#FF8383"/>
</g>
<g opacity="0.25" filter="url(#filter1_f_1179_13027)">
<rect x="173.344" y="172.062" width="40.0447" height="33.3706" rx="16.6853" fill="#FF8383"/>
</g>
</g>
<defs>
<filter id="filter0_f_1179_13027" x="56.2424" y="161.766" width="60.6383" height="53.964" filterUnits="userSpaceOnUse" color-interpolation-filters="sRGB">
<feFlood flood-opacity="0" result="BackgroundImageFix"/>
<feBlend mode="normal" in="SourceGraphic" in2="BackgroundImageFix" result="shape"/>
<feGaussianBlur stdDeviation="5.14834" result="effect1_foregroundBlur_1179_13027"/>
</filter>
<filter id="filter1_f_1179_13027" x="163.047" y="161.766" width="60.6383" height="53.964" filterUnits="userSpaceOnUse" color-interpolation-filters="sRGB">
<feFlood flood-opacity="0" result="BackgroundImageFix"/>
<feBlend mode="normal" in="SourceGraphic" in2="BackgroundImageFix" result="shape"/>
<feGaussianBlur stdDeviation="5.14834" result="effect1_foregroundBlur_1179_13027"/>
</filter>
<linearGradient id="paint0_linear_1179_13027" x1="139.96" y1="252.776" x2="139.96" y2="293.998" gradientUnits="userSpaceOnUse">
<stop stop-color="#A4C5FF"/>
<stop offset="1" stop-color="#79A1E8"/>
</linearGradient>
<linearGradient id="paint1_linear_1179_13027" x1="139.682" y1="231.051" x2="139.682" y2="263.211" gradientUnits="userSpaceOnUse">
<stop stop-color="#999999"/>
<stop offset="1" stop-color="white"/>
</linearGradient>
<linearGradient id="paint2_linear_1179_13027" x1="139.955" y1="243.944" x2="139.955" y2="260.629" gradientUnits="userSpaceOnUse">
<stop stop-color="#4775C3"/>
<stop offset="1" stop-color="#4468A6"/>
</linearGradient>
<linearGradient id="paint3_linear_1179_13027" x1="139.96" y1="264.107" x2="139.96" y2="283.153" gradientUnits="userSpaceOnUse">
<stop stop-color="#4775C3"/>
<stop offset="1" stop-color="#345690"/>
</linearGradient>
<linearGradient id="paint4_linear_1179_13027" x1="163.297" y1="187.213" x2="116.578" y2="187.213" gradientUnits="userSpaceOnUse">
<stop stop-color="#E36527"/>
<stop offset="0.51" stop-color="#B03E06"/>
<stop offset="1" stop-color="#E46527"/>
</linearGradient>
<linearGradient id="paint5_linear_1179_13027" x1="163.297" y1="187.213" x2="116.578" y2="187.213" gradientUnits="userSpaceOnUse">
<stop stop-color="#E9682A"/>
<stop offset="0.51" stop-color="#B03E06"/>
<stop offset="1" stop-color="#E56627"/>
</linearGradient>
<clipPath id="clip0_1179_13027">
<rect width="280" height="280" rx="8" fill="white"/>
</clipPath>
</defs>
</svg>
